<svg xmlns="http://www.w3.org/2000/svg" width="40" height="40" viewBox="0 0 40 40">
  <g id="Group_4629" data-name="Group 4629" transform="translate(-67 -1812)">
    <g id="Group_3365" data-name="Group 3365" transform="translate(67 1812)">
      <g id="Group_3363" data-name="Group 3363" transform="translate(20.121 0)">
        <path id="Path_7831" data-name="Path 7831" d="M72.644,15.669h.71l.305-4.848H72.644Z" transform="translate(-72.644 -10.821)" fill="#be9f56"/>
        <path id="Path_7832" data-name="Path 7832" d="M75.246,15.669h.718l.613-4.848H75.551Z" transform="translate(-74.293 -10.821)" fill="#be9f56"/>
        <path id="Path_7833" data-name="Path 7833" d="M77.872,15.669H78.6l.925-4.848H78.484Z" transform="translate(-75.957 -10.821)" fill="#be9f56"/>
        <path id="Path_7834" data-name="Path 7834" d="M113.682,46.083V46.9l4.849-1.575V44.164Z" transform="translate(-98.652 -31.952)" fill="#be9f56"/>
        <path id="Path_7835" data-name="Path 7835" d="M113.682,49.609v.78l4.849-1.245v-1.11Z" transform="translate(-98.652 -34.405)" fill="#be9f56"/>
        <path id="Path_7836" data-name="Path 7836" d="M113.682,52.995v.752l4.849-.925V51.75Z" transform="translate(-98.652 -36.76)" fill="#be9f56"/>
        <path id="Path_7837" data-name="Path 7837" d="M113.682,56.274V57l4.849-.613V55.349Z" transform="translate(-98.652 -39.04)" fill="#be9f56"/>
        <path id="Path_7838" data-name="Path 7838" d="M113.682,42.446v.866l4.84-1.916c-.005-.4-.029-.8-.073-1.193Z" transform="translate(-98.652 -29.442)" fill="#be9f56"/>
        <path id="Path_7839" data-name="Path 7839" d="M113.64,38.78c0,.1.015.2.015.3V39.7l4.729-2.225q-.081-.6-.218-1.182Z" transform="translate(-98.625 -26.963)" fill="#be9f56"/>
        <path id="Path_7840" data-name="Path 7840" d="M113.257,35.177a7.25,7.25,0,0,1,.127.921l4.477-2.462q-.153-.588-.361-1.152Z" transform="translate(-98.383 -24.55)" fill="#be9f56"/>
        <path id="Path_7841" data-name="Path 7841" d="M107.581,23.58l3.529-3.314q-.409-.452-.861-.861l-3.314,3.53A7.307,7.307,0,0,1,107.581,23.58Z" transform="translate(-94.376 -16.261)" fill="#be9f56"/>
        <path id="Path_7842" data-name="Path 7842" d="M86.1,15.669h.818l1.92-4.848H87.678Z" transform="translate(-81.173 -10.821)" fill="#be9f56"/>
        <path id="Path_7843" data-name="Path 7843" d="M92.144,15.876h.615c.1,0,.2.011.3.015l2.488-4.526q-.582-.138-1.183-.218Z" transform="translate(-85.002 -11.027)" fill="#be9f56"/>
        <path id="Path_7844" data-name="Path 7844" d="M80.54,15.669h.752l1.245-4.848H81.465Z" transform="translate(-77.648 -10.821)" fill="#be9f56"/>
        <path id="Path_7845" data-name="Path 7845" d="M83.275,15.669h.78l1.575-4.848H84.52Z" transform="translate(-79.381 -10.821)" fill="#be9f56"/>
        <path id="Path_7846" data-name="Path 7846" d="M95.389,16.39a7.321,7.321,0,0,1,.921.127L99,12.274a12,12,0,0,0-1.153-.361Z" transform="translate(-87.059 -11.513)" fill="#be9f56"/>
        <path id="Path_7847" data-name="Path 7847" d="M109.144,25.56a7.277,7.277,0,0,1,.531.745l3.75-3.1a12.164,12.164,0,0,0-.753-.956Z" transform="translate(-95.776 -18.061)" fill="#be9f56"/>
        <path id="Path_7848" data-name="Path 7848" d="M98.578,17.353a7.176,7.176,0,0,1,.878.277l2.905-4a12,12,0,0,0-1.1-.5Z" transform="translate(-89.08 -12.285)" fill="#be9f56"/>
        <path id="Path_7849" data-name="Path 7849" d="M112.328,31.736a7.243,7.243,0,0,1,.277.879l4.221-2.679a12.1,12.1,0,0,0-.5-1.1Z" transform="translate(-97.794 -22.235)" fill="#be9f56"/>
        <path id="Path_7850" data-name="Path 7850" d="M110.943,28.507a7.2,7.2,0,0,1,.418.814l3.981-2.893a12.144,12.144,0,0,0-.631-1.039Z" transform="translate(-96.916 -20.053)" fill="#be9f56"/>
        <path id="Path_7851" data-name="Path 7851" d="M101.618,18.768a7.224,7.224,0,0,1,.814.419l3.118-3.769a12.136,12.136,0,0,0-1.039-.63Z" transform="translate(-91.006 -13.334)" fill="#be9f56"/>
        <path id="Path_7852" data-name="Path 7852" d="M104.412,20.656a7.322,7.322,0,0,1,.745.531l3.314-3.529a12.164,12.164,0,0,0-.956-.753Z" transform="translate(-92.777 -14.677)" fill="#be9f56"/>
        <path id="Path_7853" data-name="Path 7853" d="M89.048,15.684h.867l2.243-4.767c-.393-.044-.791-.067-1.194-.073Z" transform="translate(-83.04 -10.835)" fill="#be9f56"/>
      </g>
      <g id="Group_3364" data-name="Group 3364" transform="translate(0 0)">
        <path id="Path_7854" data-name="Path 7854" d="M49.33,15.684H50.2l-1.916-4.84c-.4.005-.8.029-1.193.073Z" transform="translate(-36.326 -10.835)" fill="#fff"/>
        <path id="Path_7855" data-name="Path 7855" d="M52.967,15.669h.818L52.21,10.821H51.047Z" transform="translate(-38.836 -10.821)" fill="#fff"/>
        <path id="Path_7856" data-name="Path 7856" d="M56.493,15.669h.78l-1.245-4.848h-1.11Z" transform="translate(-41.288 -10.821)" fill="#fff"/>
        <path id="Path_7857" data-name="Path 7857" d="M45.664,15.891c.1,0,.2-.015.3-.015h.615l-2.225-4.729q-.6.081-1.182.218Z" transform="translate(-33.847 -11.027)" fill="#fff"/>
        <path id="Path_7858" data-name="Path 7858" d="M38.62,17.63a7.182,7.182,0,0,1,.879-.277L36.82,13.132a12,12,0,0,0-1.1.5Z" transform="translate(-29.119 -12.285)" fill="#fff"/>
        <path id="Path_7859" data-name="Path 7859" d="M42.061,16.517a7.257,7.257,0,0,1,.921-.127L40.52,11.913q-.588.153-1.152.361Z" transform="translate(-31.434 -11.513)" fill="#fff"/>
        <path id="Path_7860" data-name="Path 7860" d="M69.513,15.669h.71V10.821H69.208Z" transform="translate(-50.345 -10.821)" fill="#fff"/>
        <path id="Path_7861" data-name="Path 7861" d="M63.157,15.669h.731l-.612-4.848H62.232Z" transform="translate(-45.924 -10.821)" fill="#fff"/>
        <path id="Path_7862" data-name="Path 7862" d="M66.359,15.669h.717l-.305-4.848H65.747Z" transform="translate(-48.151 -10.821)" fill="#fff"/>
        <path id="Path_7863" data-name="Path 7863" d="M59.878,15.669h.752L59.7,10.821H58.633Z" transform="translate(-43.643 -10.821)" fill="#fff"/>
        <path id="Path_7864" data-name="Path 7864" d="M22.553,46.9v-.818L17.7,44.164v1.162Z" transform="translate(-17.704 -31.952)" fill="#fff"/>
        <path id="Path_7865" data-name="Path 7865" d="M22.567,43.312v-.866L17.8,40.2c-.044.392-.067.79-.073,1.193Z" transform="translate(-17.719 -29.442)" fill="#fff"/>
        <path id="Path_7866" data-name="Path 7866" d="M22.76,39.7v-.615c0-.1.011-.2.015-.3l-4.526-2.488a11.991,11.991,0,0,0-.218,1.182Z" transform="translate(-17.911 -26.963)" fill="#fff"/>
        <path id="Path_7867" data-name="Path 7867" d="M22.553,50.389v-.78L17.7,48.034v1.11Z" transform="translate(-17.704 -34.405)" fill="#fff"/>
        <path id="Path_7868" data-name="Path 7868" d="M22.553,53.746v-.752L17.7,51.75v1.072Z" transform="translate(-17.704 -36.76)" fill="#fff"/>
        <path id="Path_7869" data-name="Path 7869" d="M22.553,57v-.731L17.7,55.349v1.043Z" transform="translate(-17.704 -39.04)" fill="#fff"/>
        <path id="Path_7870" data-name="Path 7870" d="M22.553,60.193v-.717L17.7,58.863v1.025Z" transform="translate(-17.704 -41.268)" fill="#fff"/>
        <path id="Path_7871" data-name="Path 7871" d="M27.54,26.305a7.379,7.379,0,0,1,.531-.745l-3.529-3.314a12.1,12.1,0,0,0-.753.957Z" transform="translate(-21.56 -18.061)" fill="#fff"/>
        <path id="Path_7872" data-name="Path 7872" d="M32.444,21.187a7.243,7.243,0,0,1,.745-.531l-3.1-3.751q-.5.353-.957.753Z" transform="translate(-24.945 -14.677)" fill="#fff"/>
        <path id="Path_7873" data-name="Path 7873" d="M23.274,36.1a7.249,7.249,0,0,1,.127-.921l-4.243-2.693a11.99,11.99,0,0,0-.361,1.153Z" transform="translate(-18.396 -24.55)" fill="#fff"/>
        <path id="Path_7874" data-name="Path 7874" d="M35.39,19.185a7.222,7.222,0,0,1,.814-.418l-2.893-3.981a12.143,12.143,0,0,0-1.039.631Z" transform="translate(-26.937 -13.334)" fill="#fff"/>
        <path id="Path_7875" data-name="Path 7875" d="M24.236,32.615a7.266,7.266,0,0,1,.277-.879l-4-2.905a12.047,12.047,0,0,0-.5,1.1Z" transform="translate(-19.169 -22.235)" fill="#fff"/>
        <path id="Path_7876" data-name="Path 7876" d="M25.651,29.32a7.254,7.254,0,0,1,.418-.814L22.3,25.388q-.341.5-.631,1.039Z" transform="translate(-20.217 -20.053)" fill="#fff"/>
        <path id="Path_7877" data-name="Path 7877" d="M29.819,23.581a7.258,7.258,0,0,1,.646-.646l-3.314-3.529q-.452.409-.861.861Z" transform="translate(-23.145 -16.262)" fill="#fff"/>
        <path id="Path_7878" data-name="Path 7878" d="M29.818,100.052l-3.529,3.314a12.168,12.168,0,0,0,.861.861l3.314-3.529A7.367,7.367,0,0,1,29.818,100.052Z" transform="translate(-23.145 -67.371)" fill="#fff"/>
        <path id="Path_7879" data-name="Path 7879" d="M107.581,100.052a7.266,7.266,0,0,1-.646.646l3.314,3.529q.452-.409.861-.861Z" transform="translate(-74.255 -67.371)" fill="#fff"/>
        <path id="Path_7880" data-name="Path 7880" d="M118.531,58.863l-4.849.612v.717l4.849-.305Z" transform="translate(-78.531 -41.268)" fill="#fff"/>
        <path id="Path_7881" data-name="Path 7881" d="M109.675,97.529a7.28,7.28,0,0,1-.531.745l3.529,3.314q.4-.459.753-.956Z" transform="translate(-75.655 -65.772)" fill="#fff"/>
        <path id="Path_7882" data-name="Path 7882" d="M99.457,105.445a7.2,7.2,0,0,1-.878.276l2.679,4.222a12.1,12.1,0,0,0,1.1-.5Z" transform="translate(-68.959 -70.789)" fill="#fff"/>
        <path id="Path_7883" data-name="Path 7883" d="M93.064,106.757c-.1,0-.2.015-.3.015h-.615l2.225,4.729a12,12,0,0,0,1.183-.218Z" transform="translate(-64.881 -71.621)" fill="#fff"/>
        <path id="Path_7884" data-name="Path 7884" d="M96.311,106.373a7.262,7.262,0,0,1-.921.127l2.462,4.478A12.022,12.022,0,0,0,99,110.616Z" transform="translate(-66.938 -71.377)" fill="#fff"/>
        <path id="Path_7885" data-name="Path 7885" d="M105.158,102.261a7.373,7.373,0,0,1-.745.531l3.1,3.751q.5-.353.956-.753Z" transform="translate(-72.656 -68.771)" fill="#fff"/>
        <path id="Path_7886" data-name="Path 7886" d="M102.432,104.059a7.16,7.16,0,0,1-.814.418l2.892,3.981a12.044,12.044,0,0,0,1.039-.63Z" transform="translate(-70.885 -69.911)" fill="#fff"/>
        <path id="Path_7887" data-name="Path 7887" d="M89.915,106.8h-.867l1.916,4.84c.4-.005.8-.029,1.194-.073Z" transform="translate(-62.919 -71.647)" fill="#fff"/>
        <path id="Path_7888" data-name="Path 7888" d="M22.553,63.34v-.71L17.7,62.325V63.34Z" transform="translate(-17.704 -43.462)" fill="#fff"/>
        <path id="Path_7889" data-name="Path 7889" d="M86.921,106.8H86.1l1.575,4.848h1.163Z" transform="translate(-61.052 -71.647)" fill="#fff"/>
        <path id="Path_7890" data-name="Path 7890" d="M78.6,106.8h-.731l.613,4.848h1.043Z" transform="translate(-55.836 -71.647)" fill="#fff"/>
        <path id="Path_7891" data-name="Path 7891" d="M81.292,106.8H80.54l.925,4.848h1.072Z" transform="translate(-57.527 -71.647)" fill="#fff"/>
        <path id="Path_7892" data-name="Path 7892" d="M84.055,106.8h-.781l1.245,4.848h1.111Z" transform="translate(-59.26 -71.647)" fill="#fff"/>
        <path id="Path_7893" data-name="Path 7893" d="M113.682,79.219v.818l4.849,1.92V80.795Z" transform="translate(-78.531 -54.169)" fill="#fff"/>
        <path id="Path_7894" data-name="Path 7894" d="M113.682,70.989v.731l4.849.925V71.6Z" transform="translate(-78.531 -48.952)" fill="#fff"/>
        <path id="Path_7895" data-name="Path 7895" d="M113.682,73.657v.751l4.849,1.245V74.582Z" transform="translate(-78.531 -50.643)" fill="#fff"/>
        <path id="Path_7896" data-name="Path 7896" d="M113.682,68.362v.718l4.849.613V68.667Z" transform="translate(-78.531 -47.288)" fill="#fff"/>
        <path id="Path_7897" data-name="Path 7897" d="M113.682,62.63v.71h4.849V62.325Z" transform="translate(-78.531 -43.462)" fill="#fff"/>
        <path id="Path_7898" data-name="Path 7898" d="M111.361,94.735a7.254,7.254,0,0,1-.418.814l3.769,3.117a12.145,12.145,0,0,0,.631-1.039Z" transform="translate(-76.795 -64.002)" fill="#fff"/>
        <path id="Path_7899" data-name="Path 7899" d="M113.682,65.76v.71l4.849.305V65.76Z" transform="translate(-78.531 -45.639)" fill="#fff"/>
        <path id="Path_7900" data-name="Path 7900" d="M113.682,76.392v.78l4.849,1.575V77.636Z" transform="translate(-78.531 -52.377)" fill="#fff"/>
        <path id="Path_7901" data-name="Path 7901" d="M113.384,88.507a7.32,7.32,0,0,1-.127.921l4.243,2.693a12.017,12.017,0,0,0,.361-1.152Z" transform="translate(-78.261 -60.055)" fill="#fff"/>
        <path id="Path_7902" data-name="Path 7902" d="M73.354,106.8h-.71v4.848h1.015Z" transform="translate(-52.522 -71.647)" fill="#fff"/>
        <path id="Path_7903" data-name="Path 7903" d="M112.6,91.7a7.177,7.177,0,0,1-.277.878l4,2.905a12.028,12.028,0,0,0,.5-1.1Z" transform="translate(-77.672 -62.075)" fill="#fff"/>
        <path id="Path_7904" data-name="Path 7904" d="M113.682,82.164v.867l4.767,2.243c.044-.393.067-.791.073-1.194Z" transform="translate(-78.531 -56.035)" fill="#fff"/>
        <path id="Path_7905" data-name="Path 7905" d="M113.655,85.261v.615c0,.1-.011.2-.015.3l4.526,2.489q.138-.582.218-1.183Z" transform="translate(-78.504 -57.998)" fill="#fff"/>
        <path id="Path_7906" data-name="Path 7906" d="M75.963,106.8h-.718l.3,4.848h1.025Z" transform="translate(-54.171 -71.647)" fill="#fff"/>
        <path id="Path_7907" data-name="Path 7907" d="M28.071,98.274a7.38,7.38,0,0,1-.531-.745l-3.751,3.1q.352.5.753.956Z" transform="translate(-21.56 -65.772)" fill="#fff"/>
        <path id="Path_7908" data-name="Path 7908" d="M22.553,80.038V79.22L17.7,80.795v1.162Z" transform="translate(-17.704 -54.169)" fill="#fff"/>
        <path id="Path_7909" data-name="Path 7909" d="M22.567,83.031v-.867l-4.84,1.917c.005.4.029.8.073,1.193Z" transform="translate(-17.719 -56.035)" fill="#fff"/>
        <path id="Path_7910" data-name="Path 7910" d="M22.775,86.181c0-.1-.015-.2-.015-.3v-.615l-4.729,2.225a12.024,12.024,0,0,0,.218,1.183Z" transform="translate(-17.911 -57.998)" fill="#fff"/>
        <path id="Path_7911" data-name="Path 7911" d="M24.513,92.573a7.2,7.2,0,0,1-.276-.878l-4.222,2.679a12.091,12.091,0,0,0,.5,1.1Z" transform="translate(-19.169 -62.075)" fill="#fff"/>
        <path id="Path_7912" data-name="Path 7912" d="M26.069,95.549a7.251,7.251,0,0,1-.418-.814L21.67,97.628a12.141,12.141,0,0,0,.631,1.039Z" transform="translate(-20.217 -64.002)" fill="#fff"/>
        <path id="Path_7913" data-name="Path 7913" d="M23.4,89.427a7.258,7.258,0,0,1-.127-.921L18.8,90.968a11.99,11.99,0,0,0,.361,1.153Z" transform="translate(-18.396 -60.054)" fill="#fff"/>
        <path id="Path_7914" data-name="Path 7914" d="M22.553,69.08v-.718l-4.848.3v1.025Z" transform="translate(-17.704 -47.288)" fill="#fff"/>
        <path id="Path_7915" data-name="Path 7915" d="M22.553,66.471v-.71H17.7v1.015Z" transform="translate(-17.704 -45.639)" fill="#fff"/>
        <path id="Path_7916" data-name="Path 7916" d="M70.224,106.8h-.71l-.305,4.848h1.016Z" transform="translate(-50.345 -71.647)" fill="#fff"/>
        <path id="Path_7917" data-name="Path 7917" d="M22.553,77.172v-.78L17.7,77.637v1.111Z" transform="translate(-17.704 -52.377)" fill="#fff"/>
        <path id="Path_7918" data-name="Path 7918" d="M22.553,71.719v-.731L17.7,71.6v1.043Z" transform="translate(-17.704 -48.952)" fill="#fff"/>
        <path id="Path_7919" data-name="Path 7919" d="M22.553,74.409v-.752l-4.848.925v1.072Z" transform="translate(-17.704 -50.643)" fill="#fff"/>
        <path id="Path_7920" data-name="Path 7920" d="M53.785,106.8h-.818l-1.92,4.848H52.21Z" transform="translate(-38.835 -71.647)" fill="#fff"/>
        <path id="Path_7921" data-name="Path 7921" d="M60.63,106.8h-.751l-1.245,4.848H59.7Z" transform="translate(-43.643 -71.647)" fill="#fff"/>
        <path id="Path_7922" data-name="Path 7922" d="M57.273,106.8h-.78l-1.575,4.848h1.11Z" transform="translate(-41.288 -71.647)" fill="#fff"/>
        <path id="Path_7923" data-name="Path 7923" d="M63.888,106.8h-.731l-.925,4.848h1.043Z" transform="translate(-45.924 -71.647)" fill="#fff"/>
        <path id="Path_7924" data-name="Path 7924" d="M33.188,102.792a7.377,7.377,0,0,1-.745-.531l-3.314,3.529a12.16,12.16,0,0,0,.956.753Z" transform="translate(-24.945 -68.771)" fill="#fff"/>
        <path id="Path_7925" data-name="Path 7925" d="M67.076,106.8h-.717l-.613,4.848h1.025Z" transform="translate(-48.151 -71.647)" fill="#fff"/>
        <path id="Path_7926" data-name="Path 7926" d="M39.5,105.721a7.2,7.2,0,0,1-.879-.276l-2.905,4a12.057,12.057,0,0,0,1.1.5Z" transform="translate(-29.118 -70.789)" fill="#fff"/>
        <path id="Path_7927" data-name="Path 7927" d="M50.2,106.8H49.33l-2.243,4.767c.392.044.79.067,1.193.073Z" transform="translate(-36.326 -71.647)" fill="#fff"/>
        <path id="Path_7928" data-name="Path 7928" d="M36.2,104.478a7.223,7.223,0,0,1-.814-.419l-3.118,3.769a12.04,12.04,0,0,0,1.039.63Z" transform="translate(-26.937 -69.911)" fill="#fff"/>
        <path id="Path_7929" data-name="Path 7929" d="M42.981,106.5a7.255,7.255,0,0,1-.921-.127l-2.693,4.243a12.013,12.013,0,0,0,1.152.361Z" transform="translate(-31.433 -71.377)" fill="#fff"/>
        <path id="Path_7930" data-name="Path 7930" d="M46.583,106.772h-.615c-.1,0-.2-.011-.3-.015l-2.488,4.526a11.987,11.987,0,0,0,1.182.218Z" transform="translate(-33.847 -71.621)" fill="#fff"/>
      </g>
    </g>
    <text id="_23_" data-name="23%" transform="translate(87 1835)" fill="#fff" font-size="8" font-family="SegoeUI, Segoe UI" letter-spacing="0.1em"><tspan x="-8.386" y="0">23%</tspan></text>
  </g>
</svg>
