<svg id="g12" xmlns="http://www.w3.org/2000/svg" width="69.284" height="24.219" viewBox="0 0 69.284 24.219">
  <path id="path14" d="M233.761,373.986l-1.647,3.989h.387l3.131-3.989h-1.871" transform="translate(-171.604 -370.368)" fill="#fff"/>
  <path id="path16" d="M170.538,383.485a5.937,5.937,0,0,1-2.671-.616l-.686.616h-.316l-.211-3.9.369-.035c1.107,2.531,2.408,3.339,3.621,3.339a1.854,1.854,0,0,0,2-1.933c0-1.054-.4-1.564-2.056-2.25-.563-.227-1.213-.457-1.758-.72a3.065,3.065,0,0,1-1.88-2.865,3.447,3.447,0,0,1,3.586-3.356,3.842,3.842,0,0,1,2.056.579l.685-.6h.3l.3,3.444-.351.053c-.967-1.933-2-2.882-3.146-2.882a1.587,1.587,0,0,0-1.67,1.7c0,.826.352,1.459,1.6,2,.616.281,1.337.527,1.987.843a3.066,3.066,0,0,1,2.092,2.883,3.73,3.73,0,0,1-3.849,3.69" transform="translate(-166.654 -370.198)" fill="#fff"/>
  <path id="path18" d="M180.511,383.77c-2.671,0-3.99-1.915-3.99-4.253a4.1,4.1,0,0,1,4.218-4.236c2.671,0,3.954,1.9,3.954,4.218a4.088,4.088,0,0,1-4.183,4.271m.07-8c-1.229,0-1.986,1.371-1.986,3.779,0,2.373.809,3.725,2.056,3.725,1.283,0,1.986-1.37,1.986-3.778,0-2.372-.756-3.726-2.057-3.726" transform="translate(-167.4 -370.466)" fill="#fff"/>
  <path id="path20" d="M189.232,383.537c-1.388,0-1.828-.685-1.828-1.95v-5.255h-1.3v-.246l1.617-1.283,1.283-1.67h.263v2.285h2.671v.914h-2.671v4.552c0,.7.105,1.125.458,1.371a2.175,2.175,0,0,0,1.283.281c.281,0,.632-.018.966-.035l.018.247a5.837,5.837,0,0,1-2.759.79" transform="translate(-168.125 -370.303)" fill="#fff"/>
  <path id="path22" d="M197.965,376.223a3.827,3.827,0,0,0-1.828.44v5.816l.984.369v.246h-3.971v-.246l1.106-.369V371.864l-1.212-.791V370.9l3.023-.826.07.053v6.151l.07.035a4.293,4.293,0,0,1,2.935-1.424,2.2,2.2,0,0,1,2.249,2.443v5.149l1.108.369v.246h-3.973v-.246l.984-.369V378.05c0-1.143-.457-1.827-1.546-1.827" transform="translate(-168.649 -370.072)" fill="#fff"/>
  <path id="path24" d="M205.924,378.918c0,2.232.632,3.691,2.618,3.691a7.206,7.206,0,0,0,2.654-.562l.105.211a5.411,5.411,0,0,1-3.392,1.511,3.82,3.82,0,0,1-3.991-4.1,4.232,4.232,0,0,1,4.043-4.394c2.32,0,3.444,1.564,3.427,3.637Zm3.5-.6c-.07-1.652-.544-2.549-1.582-2.549-1.02,0-1.811,1.072-1.9,2.707l3.48-.158h0" transform="translate(-169.472 -370.466)" fill="#fff"/>
  <path id="path26" d="M216.714,383.376a11.865,11.865,0,0,1-2.97-.458V371.864l-1.23-.79V370.9l3.04-.826.07.053v5.887l.07.035a3.59,3.59,0,0,1,2.549-1.16c1.669,0,3.181,1.529,3.181,4.042a4.422,4.422,0,0,1-4.71,4.446m.3-7.258a3.5,3.5,0,0,0-1.388.281v5.571a2.65,2.65,0,0,0,1.916.808c1.036,0,1.9-.931,1.9-3.409,0-2.179-.931-3.251-2.425-3.251" transform="translate(-170.122 -370.072)" fill="#fff"/>
  <path id="path28" d="M226.982,384.055c-.879,2.162-1.7,3.112-2.794,3.112-.932,0-1.371-.545-1.371-1.107a1.047,1.047,0,0,1,1.055-1,1.693,1.693,0,0,1,1.371.843,6.8,6.8,0,0,0,.966-1.495l.3-.666-3.111-7.5-1.073-.422v-.228h4.289v.228l-1.125.422,1.9,5.15h.088l1.722-5.027-1.019-.545v-.228H231.2v.228l-1.142.58-3.075,7.661h0" transform="translate(-170.863 -370.489)" fill="#fff"/>
  <path id="path30" d="M237.988,383.77a6.925,6.925,0,0,1-2.6-.475l-.018-2.319.351-.035c.949,1.669,1.67,2.3,2.6,2.3a1.245,1.245,0,0,0,1.336-1.335c0-.914-.931-1.266-1.933-1.669-1.107-.475-2.285-1-2.285-2.461,0-1.388,1.23-2.5,3.023-2.5a7.538,7.538,0,0,1,2.127.316l.053,2.092-.335.088c-.861-1.424-1.423-1.969-2.231-1.969a1.109,1.109,0,0,0-1.2,1.125c0,.914.949,1.283,1.95,1.687,1.107.458,2.3.984,2.3,2.478,0,1.634-1.441,2.671-3.146,2.671" transform="translate(-171.85 -370.466)" fill="#fff"/>
  <path id="path32" d="M233.916,395.847h.393v-1.8l1.376-2.288h-.42l-1.144,1.951-1.149-1.951h-.425l1.37,2.288Zm-3.531,0h.392v-3.725H232.1v-.364h-3.034v.364h1.321Zm-3.488,0h2.393v-.36h-2v-3.73H226.9Zm-3.371-1.608.7-2.034h.011l.7,2.034Zm-.939,1.608h.381l.436-1.26h1.658l.437,1.26h.409l-1.449-4.106h-.425Zm-3.063,0h2.56v-.36h-2.167v-1.624h1.531v-.354h-1.531v-1.387h2.05v-.364h-2.443Zm-3.652-2.183v-1.547h.95c.686,0,1.061.2,1.061.764,0,.591-.382.784-1.056.784Zm-.387,2.183h.387v-1.835h1.017l1,1.835h.442l-1.033-1.879a1.048,1.048,0,0,0,.978-1.1c0-.719-.508-1.106-1.42-1.106h-1.371Zm-4.736,0h2.393v-.36h-2v-3.73h-.392Zm-3.471-1.608.7-2.034h.011l.7,2.034Zm-.939,1.608h.381l.437-1.26h1.657l.436,1.26h.41l-1.449-4.106h-.425Zm-4.117,0h.37V392.37h.011l2.327,3.477h.348v-4.089h-.371v3.371H204.9l-2.255-3.371h-.42Zm-2.979-.276c-.774,0-1.332-.657-1.332-1.768s.558-1.763,1.332-1.763,1.332.652,1.332,1.763S200.016,395.571,199.242,395.571Zm0,.354c1,0,1.724-.84,1.724-2.122s-.724-2.122-1.724-2.122-1.725.84-1.725,2.122S198.242,395.925,199.242,395.925Zm-3.295-.078h.393v-4.089h-.393Zm-2.652,0h.392v-3.725h1.321v-.364h-3.034v.364H193.3v3.725Zm-3.957-1.608.7-2.034h.011l.7,2.034Zm-.939,1.608h.381l.436-1.26h1.658l.436,1.26h.409l-1.449-4.106h-.425Zm-4.113,0h.371V392.37h.011L187,395.847h.348v-4.089h-.371v3.371h-.011l-2.255-3.371h-.421Zm-3.763-2.183v-1.547h.95c.686,0,1.061.2,1.061.764,0,.591-.381.784-1.056.784Zm-.387,2.183h.387v-1.835h1.017l1,1.835h.443l-1.034-1.879a1.048,1.048,0,0,0,.978-1.1c0-.719-.508-1.106-1.42-1.106h-1.371Zm-3.62,0h2.559v-.36h-2.166v-1.624h1.531v-.354h-1.531v-1.387h2.05v-.364h-2.443Zm-2.6,0h.393v-3.725h1.321v-.364H172.6v.364h1.321Zm-5.262,0h.371V392.37h.011l2.327,3.477h.349v-4.089h-.371v3.371h-.011l-2.255-3.371h-.421Zm-1.807,0h.393v-4.089h-.393v4.089h0" transform="translate(-166.669 -371.706)" fill="#fff"/>
</svg>
